<svg xmlns="http://www.w3.org/2000/svg" width="760" height="160" viewBox="0 0 760 160" fill="none">
  <rect width="760" height="160" fill="#0C231A"/>
  <defs>
    <linearGradient id="flg" x1="30" y1="120" x2="140" y2="30" gradientUnits="userSpaceOnUse">
      <stop offset="0" stop-color="#B9862E"/>
      <stop offset="1" stop-color="#F4DFA6"/>
    </linearGradient>
  </defs>
  <g transform="translate(28,24) scale(1.75)">
    <polyline points="8,52 22,34 33,42 54,14" stroke="url(#flg)" stroke-width="2.2" stroke-linecap="round" stroke-linejoin="round" fill="none"/>
    <line x1="22" y1="34" x2="13" y2="17" stroke="#D9A441" stroke-width="1" opacity="0.45"/>
    <line x1="33" y1="42" x2="46" y2="47" stroke="#D9A441" stroke-width="1" opacity="0.45"/>
    <circle cx="13" cy="17" r="1.8" fill="#E8CB84" opacity="0.8"/>
    <circle cx="46" cy="47" r="1.8" fill="#E8CB84" opacity="0.8"/>
    <circle cx="8" cy="52" r="2.8" fill="#FCF6E3"/>
    <circle cx="22" cy="34" r="2.8" fill="#FCF6E3"/>
    <circle cx="33" cy="42" r="2.8" fill="#FCF6E3"/>
    <circle cx="54" cy="14" r="7" fill="#D9A441" opacity="0.28"/>
    <circle cx="54" cy="14" r="3.4" fill="#FFFFFF"/>
    <line x1="54" y1="4.5" x2="54" y2="23.5" stroke="#F6E9C5" stroke-width="1.1" opacity="0.7"/>
    <line x1="44.5" y1="14" x2="63.5" y2="14" stroke="#F6E9C5" stroke-width="1.1" opacity="0.7"/>
  </g>
  <text x="160" y="82" font-family="Poppins, Arial, sans-serif" font-size="42" font-weight="200" letter-spacing="14" fill="#FFFFFF">FRANK <tspan fill="#D9A441" font-weight="300">LOUIS</tspan></text>
  <text x="163" y="116" font-family="Poppins, Arial, sans-serif" font-size="15" font-weight="400" letter-spacing="11" fill="#D9A441">CHARTERED ACCOUNTANTS</text>
</svg>
